# xmcd CD database file
#
# Track frame offsets:
#	150
#	16712
#	35290
#	52727
#	64512
#	80412
#	100435
#	115052
#	132277
#	151947
#	162910
#	172920
#	185125
#
# Disc length: 2643 seconds
#
# Revision: 0
# Processed by: cddbd v1.4PL0 Copyright (c) Steve Scherf et al.
# Submitted via: CDex 1.50Beta7
#
DISCID=960a510d
DTITLE=Sebastian - Spirits of Indonesia
DYEAR=1900
DGENRE=New Age
TTITLE0=Sepanjang jalan kenangan
TTITLE1=Aryati
TTITLE2=Sarina
TTITLE3=Selendang soetra
TTITLE4=Waktu Potong padi
TTITLE5=Ambon memories
TTITLE6=Sajang e
TTITLE7=Tempo doeloe
TTITLE8=Selendang merah
TTITLE9=Lei no kai lani
TTITLE10=Farewell java
TTITLE11=Sarinande
TTITLE12=Little bird
EXTD=
EXTT0=
EXTT1=
EXTT2=
EXTT3=
EXTT4=
EXTT5=
EXTT6=
EXTT7=
EXTT8=
EXTT9=
EXTT10=
EXTT11=
EXTT12=
PLAYORDER=
